<?xml version="1.0" encoding="UTF-8"?>
<svg xmlns="http://www.w3.org/2000/svg" xmlns:xlink="http://www.w3.org/1999/xlink" viewBox="0 0 60 60" width="60px" height="60px">
<g id="surface27562464">
<path style=" stroke:none;fill-rule:nonzero;fill:rgb(100%,100%,100%);fill-opacity:1;" d="M 27.25 5.25 C 15.75 6.5 6.5 15.75 5.25 27 C 4 38.75 10.75 49.25 21 53.25 C 21.75 53.5 22.5 53 22.5 52 L 22.5 48 C 22.5 48 21.5 48.25 20.25 48.25 C 16.75 48.25 15.25 45.25 15 43.5 C 14.75 42.5 14.25 41.75 13.5 41 C 12.75 40.75 12.5 40.75 12.5 40.5 C 12.5 40 13.25 40 13.5 40 C 15 40 16.25 41.75 16.75 42.5 C 18 44.5 19.5 45 20.25 45 C 21.25 45 22 44.75 22.5 44.5 C 22.75 42.75 23.5 41 25 40 C 19.25 38.75 15 35.5 15 30 C 15 27.25 16.25 24.5 18 22.5 C 17.75 22 17.5 20.75 17.5 19 C 17.5 18 17.5 16.5 18.25 15 C 18.25 15 21.75 15 25.25 18.25 C 26.5 17.75 28.25 17.5 30 17.5 C 31.75 17.5 33.5 17.75 35 18.25 C 38.25 15 42 15 42 15 C 42.5 16.5 42.5 18 42.5 19 C 42.5 21 42.25 22 42 22.5 C 43.75 24.5 45 27 45 30 C 45 35.5 40.75 38.75 35 40 C 36.5 41.25 37.5 43.5 37.5 45.75 L 37.5 52.25 C 37.5 53 38.25 53.75 39.25 53.5 C 48.5 49.75 55 40.75 55 30.25 C 55 15.25 42.25 3.5 27.25 5.25 Z M 27.25 5.25 "/>
</g>
</svg>
