<?xml version="1.0" encoding="UTF-8"?>
<svg xmlns="http://www.w3.org/2000/svg" xmlns:xlink="http://www.w3.org/1999/xlink" viewBox="0 0 60 60" width="60px" height="60px">
<g id="surface27802726">
<path style=" stroke:none;fill-rule:nonzero;fill:rgb(100%,100%,100%);fill-opacity:1;" d="M 12.5 7.5 C 9.738281 7.5 7.5 9.738281 7.5 12.5 L 7.5 47.5 C 7.5 50.261719 9.738281 52.5 12.5 52.5 L 47.5 52.5 C 50.261719 52.5 52.5 50.261719 52.5 47.5 L 52.5 12.5 C 52.5 9.738281 50.261719 7.5 47.5 7.5 Z M 12.5 12.5 L 47.5 12.5 L 47.5 47.5 L 12.5 47.5 Z M 19.449219 15.792969 C 17.304688 15.792969 16.019531 17.078125 16.019531 18.792969 C 16.019531 20.507812 17.304688 21.792969 19.234375 21.792969 C 21.375 21.792969 22.660156 20.507812 22.660156 18.792969 C 22.660156 17.078125 21.375 15.792969 19.449219 15.792969 Z M 16.191406 25 L 16.191406 42.5 L 22.5 42.5 L 22.5 25 Z M 27.703125 25 L 27.703125 42.5 L 34.015625 42.5 L 34.015625 32.933594 C 34.015625 30.085938 36.046875 29.679688 36.65625 29.679688 C 37.265625 29.679688 38.898438 30.289062 38.898438 32.933594 L 38.898438 42.5 L 45 42.5 L 45 32.933594 C 45 27.441406 42.558594 25 39.507812 25 C 36.453125 25 34.828125 26.015625 34.015625 27.441406 L 34.015625 25 Z M 27.703125 25 "/>
</g>
</svg>
